<?xml version="1.0" encoding="utf-8" standalone="no"?>
<!DOCTYPE svg PUBLIC "-//W3C//DTD SVG 1.1//EN"
  "http://www.w3.org/Graphics/SVG/1.1/DTD/svg11.dtd">
<svg xmlns:xlink="http://www.w3.org/1999/xlink" width="497.38125pt" height="372.782562pt" viewBox="0 0 497.38125 372.782562" xmlns="http://www.w3.org/2000/svg" version="1.1">
 <metadata>
  <rdf:RDF xmlns:dc="http://purl.org/dc/elements/1.1/" xmlns:cc="http://creativecommons.org/ns#" xmlns:rdf="http://www.w3.org/1999/02/22-rdf-syntax-ns#">
   <cc:Work>
    <dc:type rdf:resource="http://purl.org/dc/dcmitype/StillImage"></dc:type>
    <dc:date>2025-04-12T17:42:49.836628</dc:date>
    <dc:format>image/svg+xml</dc:format>
    <dc:creator>
     <cc:Agent>
      <dc:title>Matplotlib v3.9.2, https://matplotlib.org/</dc:title>
     </cc:Agent>
    </dc:creator>
   </cc:Work>
  </rdf:RDF>
 </metadata>
 <defs>
  <style>* {
  stroke-linejoin: round;
  stroke-linecap: butt;
}
</style>
 </defs>
 <g id="figure_1">
  <g id="patch_1">
   <path d="M 0 372.782562 
L 497.38125 372.782562 
L 497.38125 0 
L 0 0 
z
" style="fill: #fff"></path>
  </g>
  <g id="axes_1">
   <g id="patch_2">
    <path d="M 43.78125 299.518125 
L 490.18125 299.518125 
L 490.18125 22.318125 
L 43.78125 22.318125 
z
" style="fill: #fff"></path>
   </g>
   <g id="matplotlib.axis_1">
    <g id="xtick_1">
     <g id="line2d_1">
      <defs>
       <path id="mbda7db0cda" d="M 0 0 
L 0 3.5 
" style="stroke: #000; stroke-width: .8px"></path>
      </defs>
      <g>
       <use xlink:href="#mbda7db0cda" x="64.072159" y="299.518125" style="stroke: #000; stroke-width: .8px"></use>
      </g>
     </g>
     <g id="text_1">
      <!-- 2000-2001 -->
      <g transform="translate(24.058754 350.433876) rotate(-45) scale(0.1 -0.1)">
       <defs>
        <path id="DejaVuSans-32" d="M 1228 531 
L 3431 531 
L 3431 0 
L 469 0 
L 469 531 
Q 828 903 1448 1529 
Q 2069 2156 2228 2338 
Q 2531 2678 2651 2914 
Q 2772 3150 2772 3378 
Q 2772 3750 2511 3984 
Q 2250 4219 1831 4219 
Q 1534 4219 1204 4116 
Q 875 4013 500 3803 
L 500 4441 
Q 881 4594 1212 4672 
Q 1544 4750 1819 4750 
Q 2544 4750 2975 4387 
Q 3406 4025 3406 3419 
Q 3406 3131 3298 2873 
Q 3191 2616 2906 2266 
Q 2828 2175 2409 1742 
Q 1991 1309 1228 531 
z
" transform="scale(0.015625)"></path>
        <path id="DejaVuSans-30" d="M 2034 4250 
Q 1547 4250 1301 3770 
Q 1056 3291 1056 2328 
Q 1056 1369 1301 889 
Q 1547 409 2034 409 
Q 2525 409 2770 889 
Q 3016 1369 3016 2328 
Q 3016 3291 2770 3770 
Q 2525 4250 2034 4250 
z
M 2034 4750 
Q 2819 4750 3233 4129 
Q 3647 3509 3647 2328 
Q 3647 1150 3233 529 
Q 2819 -91 2034 -91 
Q 1250 -91 836 529 
Q 422 1150 422 2328 
Q 422 3509 836 4129 
Q 1250 4750 2034 4750 
z
" transform="scale(0.015625)"></path>
        <path id="DejaVuSans-2d" d="M 313 2009 
L 1997 2009 
L 1997 1497 
L 313 1497 
L 313 2009 
z
" transform="scale(0.015625)"></path>
        <path id="DejaVuSans-31" d="M 794 531 
L 1825 531 
L 1825 4091 
L 703 3866 
L 703 4441 
L 1819 4666 
L 2450 4666 
L 2450 531 
L 3481 531 
L 3481 0 
L 794 0 
L 794 531 
z
" transform="scale(0.015625)"></path>
       </defs>
       <use xlink:href="#DejaVuSans-32"></use>
       <use xlink:href="#DejaVuSans-30" x="63.623047"></use>
       <use xlink:href="#DejaVuSans-30" x="127.246094"></use>
       <use xlink:href="#DejaVuSans-30" x="190.869141"></use>
       <use xlink:href="#DejaVuSans-2d" x="254.492188"></use>
       <use xlink:href="#DejaVuSans-32" x="290.576172"></use>
       <use xlink:href="#DejaVuSans-30" x="354.199219"></use>
       <use xlink:href="#DejaVuSans-30" x="417.822266"></use>
       <use xlink:href="#DejaVuSans-31" x="481.445312"></use>
      </g>
     </g>
    </g>
    <g id="xtick_2">
     <g id="line2d_2">
      <g>
       <use xlink:href="#mbda7db0cda" x="86.617614" y="299.518125" style="stroke: #000; stroke-width: .8px"></use>
      </g>
     </g>
     <g id="text_2">
      <!-- 2001-2002 -->
      <g transform="translate(46.604209 350.433876) rotate(-45) scale(0.1 -0.1)">
       <use xlink:href="#DejaVuSans-32"></use>
       <use xlink:href="#DejaVuSans-30" x="63.623047"></use>
       <use xlink:href="#DejaVuSans-30" x="127.246094"></use>
       <use xlink:href="#DejaVuSans-31" x="190.869141"></use>
       <use xlink:href="#DejaVuSans-2d" x="254.492188"></use>
       <use xlink:href="#DejaVuSans-32" x="290.576172"></use>
       <use xlink:href="#DejaVuSans-30" x="354.199219"></use>
       <use xlink:href="#DejaVuSans-30" x="417.822266"></use>
       <use xlink:href="#DejaVuSans-32" x="481.445312"></use>
      </g>
     </g>
    </g>
    <g id="xtick_3">
     <g id="line2d_3">
      <g>
       <use xlink:href="#mbda7db0cda" x="109.163068" y="299.518125" style="stroke: #000; stroke-width: .8px"></use>
      </g>
     </g>
     <g id="text_3">
      <!-- 2002-2003 -->
      <g transform="translate(69.149663 350.433876) rotate(-45) scale(0.1 -0.1)">
       <defs>
        <path id="DejaVuSans-33" d="M 2597 2516 
Q 3050 2419 3304 2112 
Q 3559 1806 3559 1356 
Q 3559 666 3084 287 
Q 2609 -91 1734 -91 
Q 1441 -91 1130 -33 
Q 819 25 488 141 
L 488 750 
Q 750 597 1062 519 
Q 1375 441 1716 441 
Q 2309 441 2620 675 
Q 2931 909 2931 1356 
Q 2931 1769 2642 2001 
Q 2353 2234 1838 2234 
L 1294 2234 
L 1294 2753 
L 1863 2753 
Q 2328 2753 2575 2939 
Q 2822 3125 2822 3475 
Q 2822 3834 2567 4026 
Q 2313 4219 1838 4219 
Q 1578 4219 1281 4162 
Q 984 4106 628 3988 
L 628 4550 
Q 988 4650 1302 4700 
Q 1616 4750 1894 4750 
Q 2613 4750 3031 4423 
Q 3450 4097 3450 3541 
Q 3450 3153 3228 2886 
Q 3006 2619 2597 2516 
z
" transform="scale(0.015625)"></path>
       </defs>
       <use xlink:href="#DejaVuSans-32"></use>
       <use xlink:href="#DejaVuSans-30" x="63.623047"></use>
       <use xlink:href="#DejaVuSans-30" x="127.246094"></use>
       <use xlink:href="#DejaVuSans-32" x="190.869141"></use>
       <use xlink:href="#DejaVuSans-2d" x="254.492188"></use>
       <use xlink:href="#DejaVuSans-32" x="290.576172"></use>
       <use xlink:href="#DejaVuSans-30" x="354.199219"></use>
       <use xlink:href="#DejaVuSans-30" x="417.822266"></use>
       <use xlink:href="#DejaVuSans-33" x="481.445312"></use>
      </g>
     </g>
    </g>
    <g id="xtick_4">
     <g id="line2d_4">
      <g>
       <use xlink:href="#mbda7db0cda" x="131.708523" y="299.518125" style="stroke: #000; stroke-width: .8px"></use>
      </g>
     </g>
     <g id="text_4">
      <!-- 2003-2004 -->
      <g transform="translate(91.695118 350.433876) rotate(-45) scale(0.1 -0.1)">
       <defs>
        <path id="DejaVuSans-34" d="M 2419 4116 
L 825 1625 
L 2419 1625 
L 2419 4116 
z
M 2253 4666 
L 3047 4666 
L 3047 1625 
L 3713 1625 
L 3713 1100 
L 3047 1100 
L 3047 0 
L 2419 0 
L 2419 1100 
L 313 1100 
L 313 1709 
L 2253 4666 
z
" transform="scale(0.015625)"></path>
       </defs>
       <use xlink:href="#DejaVuSans-32"></use>
       <use xlink:href="#DejaVuSans-30" x="63.623047"></use>
       <use xlink:href="#DejaVuSans-30" x="127.246094"></use>
       <use xlink:href="#DejaVuSans-33" x="190.869141"></use>
       <use xlink:href="#DejaVuSans-2d" x="254.492188"></use>
       <use xlink:href="#DejaVuSans-32" x="290.576172"></use>
       <use xlink:href="#DejaVuSans-30" x="354.199219"></use>
       <use xlink:href="#DejaVuSans-30" x="417.822266"></use>
       <use xlink:href="#DejaVuSans-34" x="481.445312"></use>
      </g>
     </g>
    </g>
    <g id="xtick_5">
     <g id="line2d_5">
      <g>
       <use xlink:href="#mbda7db0cda" x="154.253977" y="299.518125" style="stroke: #000; stroke-width: .8px"></use>
      </g>
     </g>
     <g id="text_5">
      <!-- 2004-2005 -->
      <g transform="translate(114.240572 350.433876) rotate(-45) scale(0.1 -0.1)">
       <defs>
        <path id="DejaVuSans-35" d="M 691 4666 
L 3169 4666 
L 3169 4134 
L 1269 4134 
L 1269 2991 
Q 1406 3038 1543 3061 
Q 1681 3084 1819 3084 
Q 2600 3084 3056 2656 
Q 3513 2228 3513 1497 
Q 3513 744 3044 326 
Q 2575 -91 1722 -91 
Q 1428 -91 1123 -41 
Q 819 9 494 109 
L 494 744 
Q 775 591 1075 516 
Q 1375 441 1709 441 
Q 2250 441 2565 725 
Q 2881 1009 2881 1497 
Q 2881 1984 2565 2268 
Q 2250 2553 1709 2553 
Q 1456 2553 1204 2497 
Q 953 2441 691 2322 
L 691 4666 
z
" transform="scale(0.015625)"></path>
       </defs>
       <use xlink:href="#DejaVuSans-32"></use>
       <use xlink:href="#DejaVuSans-30" x="63.623047"></use>
       <use xlink:href="#DejaVuSans-30" x="127.246094"></use>
       <use xlink:href="#DejaVuSans-34" x="190.869141"></use>
       <use xlink:href="#DejaVuSans-2d" x="254.492188"></use>
       <use xlink:href="#DejaVuSans-32" x="290.576172"></use>
       <use xlink:href="#DejaVuSans-30" x="354.199219"></use>
       <use xlink:href="#DejaVuSans-30" x="417.822266"></use>
       <use xlink:href="#DejaVuSans-35" x="481.445312"></use>
      </g>
     </g>
    </g>
    <g id="xtick_6">
     <g id="line2d_6">
      <g>
       <use xlink:href="#mbda7db0cda" x="176.799432" y="299.518125" style="stroke: #000; stroke-width: .8px"></use>
      </g>
     </g>
     <g id="text_6">
      <!-- 2005-2006 -->
      <g transform="translate(136.786027 350.433876) rotate(-45) scale(0.1 -0.1)">
       <defs>
        <path id="DejaVuSans-36" d="M 2113 2584 
Q 1688 2584 1439 2293 
Q 1191 2003 1191 1497 
Q 1191 994 1439 701 
Q 1688 409 2113 409 
Q 2538 409 2786 701 
Q 3034 994 3034 1497 
Q 3034 2003 2786 2293 
Q 2538 2584 2113 2584 
z
M 3366 4563 
L 3366 3988 
Q 3128 4100 2886 4159 
Q 2644 4219 2406 4219 
Q 1781 4219 1451 3797 
Q 1122 3375 1075 2522 
Q 1259 2794 1537 2939 
Q 1816 3084 2150 3084 
Q 2853 3084 3261 2657 
Q 3669 2231 3669 1497 
Q 3669 778 3244 343 
Q 2819 -91 2113 -91 
Q 1303 -91 875 529 
Q 447 1150 447 2328 
Q 447 3434 972 4092 
Q 1497 4750 2381 4750 
Q 2619 4750 2861 4703 
Q 3103 4656 3366 4563 
z
" transform="scale(0.015625)"></path>
       </defs>
       <use xlink:href="#DejaVuSans-32"></use>
       <use xlink:href="#DejaVuSans-30" x="63.623047"></use>
       <use xlink:href="#DejaVuSans-30" x="127.246094"></use>
       <use xlink:href="#DejaVuSans-35" x="190.869141"></use>
       <use xlink:href="#DejaVuSans-2d" x="254.492188"></use>
       <use xlink:href="#DejaVuSans-32" x="290.576172"></use>
       <use xlink:href="#DejaVuSans-30" x="354.199219"></use>
       <use xlink:href="#DejaVuSans-30" x="417.822266"></use>
       <use xlink:href="#DejaVuSans-36" x="481.445312"></use>
      </g>
     </g>
    </g>
    <g id="xtick_7">
     <g id="line2d_7">
      <g>
       <use xlink:href="#mbda7db0cda" x="199.344886" y="299.518125" style="stroke: #000; stroke-width: .8px"></use>
      </g>
     </g>
     <g id="text_7">
      <!-- 2006-2007 -->
      <g transform="translate(159.331481 350.433876) rotate(-45) scale(0.1 -0.1)">
       <defs>
        <path id="DejaVuSans-37" d="M 525 4666 
L 3525 4666 
L 3525 4397 
L 1831 0 
L 1172 0 
L 2766 4134 
L 525 4134 
L 525 4666 
z
" transform="scale(0.015625)"></path>
       </defs>
       <use xlink:href="#DejaVuSans-32"></use>
       <use xlink:href="#DejaVuSans-30" x="63.623047"></use>
       <use xlink:href="#DejaVuSans-30" x="127.246094"></use>
       <use xlink:href="#DejaVuSans-36" x="190.869141"></use>
       <use xlink:href="#DejaVuSans-2d" x="254.492188"></use>
       <use xlink:href="#DejaVuSans-32" x="290.576172"></use>
       <use xlink:href="#DejaVuSans-30" x="354.199219"></use>
       <use xlink:href="#DejaVuSans-30" x="417.822266"></use>
       <use xlink:href="#DejaVuSans-37" x="481.445312"></use>
      </g>
     </g>
    </g>
    <g id="xtick_8">
     <g id="line2d_8">
      <g>
       <use xlink:href="#mbda7db0cda" x="221.890341" y="299.518125" style="stroke: #000; stroke-width: .8px"></use>
      </g>
     </g>
     <g id="text_8">
      <!-- 2007-2008 -->
      <g transform="translate(181.876936 350.433876) rotate(-45) scale(0.1 -0.1)">
       <defs>
        <path id="DejaVuSans-38" d="M 2034 2216 
Q 1584 2216 1326 1975 
Q 1069 1734 1069 1313 
Q 1069 891 1326 650 
Q 1584 409 2034 409 
Q 2484 409 2743 651 
Q 3003 894 3003 1313 
Q 3003 1734 2745 1975 
Q 2488 2216 2034 2216 
z
M 1403 2484 
Q 997 2584 770 2862 
Q 544 3141 544 3541 
Q 544 4100 942 4425 
Q 1341 4750 2034 4750 
Q 2731 4750 3128 4425 
Q 3525 4100 3525 3541 
Q 3525 3141 3298 2862 
Q 3072 2584 2669 2484 
Q 3125 2378 3379 2068 
Q 3634 1759 3634 1313 
Q 3634 634 3220 271 
Q 2806 -91 2034 -91 
Q 1263 -91 848 271 
Q 434 634 434 1313 
Q 434 1759 690 2068 
Q 947 2378 1403 2484 
z
M 1172 3481 
Q 1172 3119 1398 2916 
Q 1625 2713 2034 2713 
Q 2441 2713 2670 2916 
Q 2900 3119 2900 3481 
Q 2900 3844 2670 4047 
Q 2441 4250 2034 4250 
Q 1625 4250 1398 4047 
Q 1172 3844 1172 3481 
z
" transform="scale(0.015625)"></path>
       </defs>
       <use xlink:href="#DejaVuSans-32"></use>
       <use xlink:href="#DejaVuSans-30" x="63.623047"></use>
       <use xlink:href="#DejaVuSans-30" x="127.246094"></use>
       <use xlink:href="#DejaVuSans-37" x="190.869141"></use>
       <use xlink:href="#DejaVuSans-2d" x="254.492188"></use>
       <use xlink:href="#DejaVuSans-32" x="290.576172"></use>
       <use xlink:href="#DejaVuSans-30" x="354.199219"></use>
       <use xlink:href="#DejaVuSans-30" x="417.822266"></use>
       <use xlink:href="#DejaVuSans-38" x="481.445312"></use>
      </g>
     </g>
    </g>
    <g id="xtick_9">
     <g id="line2d_9">
      <g>
       <use xlink:href="#mbda7db0cda" x="244.435795" y="299.518125" style="stroke: #000; stroke-width: .8px"></use>
      </g>
     </g>
     <g id="text_9">
      <!-- 2008-2009 -->
      <g transform="translate(204.42239 350.433876) rotate(-45) scale(0.1 -0.1)">
       <defs>
        <path id="DejaVuSans-39" d="M 703 97 
L 703 672 
Q 941 559 1184 500 
Q 1428 441 1663 441 
Q 2288 441 2617 861 
Q 2947 1281 2994 2138 
Q 2813 1869 2534 1725 
Q 2256 1581 1919 1581 
Q 1219 1581 811 2004 
Q 403 2428 403 3163 
Q 403 3881 828 4315 
Q 1253 4750 1959 4750 
Q 2769 4750 3195 4129 
Q 3622 3509 3622 2328 
Q 3622 1225 3098 567 
Q 2575 -91 1691 -91 
Q 1453 -91 1209 -44 
Q 966 3 703 97 
z
M 1959 2075 
Q 2384 2075 2632 2365 
Q 2881 2656 2881 3163 
Q 2881 3666 2632 3958 
Q 2384 4250 1959 4250 
Q 1534 4250 1286 3958 
Q 1038 3666 1038 3163 
Q 1038 2656 1286 2365 
Q 1534 2075 1959 2075 
z
" transform="scale(0.015625)"></path>
       </defs>
       <use xlink:href="#DejaVuSans-32"></use>
       <use xlink:href="#DejaVuSans-30" x="63.623047"></use>
       <use xlink:href="#DejaVuSans-30" x="127.246094"></use>
       <use xlink:href="#DejaVuSans-38" x="190.869141"></use>
       <use xlink:href="#DejaVuSans-2d" x="254.492188"></use>
       <use xlink:href="#DejaVuSans-32" x="290.576172"></use>
       <use xlink:href="#DejaVuSans-30" x="354.199219"></use>
       <use xlink:href="#DejaVuSans-30" x="417.822266"></use>
       <use xlink:href="#DejaVuSans-39" x="481.445312"></use>
      </g>
     </g>
    </g>
    <g id="xtick_10">
     <g id="line2d_10">
      <g>
       <use xlink:href="#mbda7db0cda" x="266.98125" y="299.518125" style="stroke: #000; stroke-width: .8px"></use>
      </g>
     </g>
     <g id="text_10">
      <!-- 2009-2010 -->
      <g transform="translate(226.967845 350.433876) rotate(-45) scale(0.1 -0.1)">
       <use xlink:href="#DejaVuSans-32"></use>
       <use xlink:href="#DejaVuSans-30" x="63.623047"></use>
       <use xlink:href="#DejaVuSans-30" x="127.246094"></use>
       <use xlink:href="#DejaVuSans-39" x="190.869141"></use>
       <use xlink:href="#DejaVuSans-2d" x="254.492188"></use>
       <use xlink:href="#DejaVuSans-32" x="290.576172"></use>
       <use xlink:href="#DejaVuSans-30" x="354.199219"></use>
       <use xlink:href="#DejaVuSans-31" x="417.822266"></use>
       <use xlink:href="#DejaVuSans-30" x="481.445312"></use>
      </g>
     </g>
    </g>
    <g id="xtick_11">
     <g id="line2d_11">
      <g>
       <use xlink:href="#mbda7db0cda" x="289.526705" y="299.518125" style="stroke: #000; stroke-width: .8px"></use>
      </g>
     </g>
     <g id="text_11">
      <!-- 2010-2011 -->
      <g transform="translate(249.5133 350.433876) rotate(-45) scale(0.1 -0.1)">
       <use xlink:href="#DejaVuSans-32"></use>
       <use xlink:href="#DejaVuSans-30" x="63.623047"></use>
       <use xlink:href="#DejaVuSans-31" x="127.246094"></use>
       <use xlink:href="#DejaVuSans-30" x="190.869141"></use>
       <use xlink:href="#DejaVuSans-2d" x="254.492188"></use>
       <use xlink:href="#DejaVuSans-32" x="290.576172"></use>
       <use xlink:href="#DejaVuSans-30" x="354.199219"></use>
       <use xlink:href="#DejaVuSans-31" x="417.822266"></use>
       <use xlink:href="#DejaVuSans-31" x="481.445312"></use>
      </g>
     </g>
    </g>
    <g id="xtick_12">
     <g id="line2d_12">
      <g>
       <use xlink:href="#mbda7db0cda" x="312.072159" y="299.518125" style="stroke: #000; stroke-width: .8px"></use>
      </g>
     </g>
     <g id="text_12">
      <!-- 2011-2012 -->
      <g transform="translate(272.058754 350.433876) rotate(-45) scale(0.1 -0.1)">
       <use xlink:href="#DejaVuSans-32"></use>
       <use xlink:href="#DejaVuSans-30" x="63.623047"></use>
       <use xlink:href="#DejaVuSans-31" x="127.246094"></use>
       <use xlink:href="#DejaVuSans-31" x="190.869141"></use>
       <use xlink:href="#DejaVuSans-2d" x="254.492188"></use>
       <use xlink:href="#DejaVuSans-32" x="290.576172"></use>
       <use xlink:href="#DejaVuSans-30" x="354.199219"></use>
       <use xlink:href="#DejaVuSans-31" x="417.822266"></use>
       <use xlink:href="#DejaVuSans-32" x="481.445312"></use>
      </g>
     </g>
    </g>
    <g id="xtick_13">
     <g id="line2d_13">
      <g>
       <use xlink:href="#mbda7db0cda" x="334.617614" y="299.518125" style="stroke: #000; stroke-width: .8px"></use>
      </g>
     </g>
     <g id="text_13">
      <!-- 2012-2013 -->
      <g transform="translate(294.604209 350.433876) rotate(-45) scale(0.1 -0.1)">
       <use xlink:href="#DejaVuSans-32"></use>
       <use xlink:href="#DejaVuSans-30" x="63.623047"></use>
       <use xlink:href="#DejaVuSans-31" x="127.246094"></use>
       <use xlink:href="#DejaVuSans-32" x="190.869141"></use>
       <use xlink:href="#DejaVuSans-2d" x="254.492188"></use>
       <use xlink:href="#DejaVuSans-32" x="290.576172"></use>
       <use xlink:href="#DejaVuSans-30" x="354.199219"></use>
       <use xlink:href="#DejaVuSans-31" x="417.822266"></use>
       <use xlink:href="#DejaVuSans-33" x="481.445312"></use>
      </g>
     </g>
    </g>
    <g id="xtick_14">
     <g id="line2d_14">
      <g>
       <use xlink:href="#mbda7db0cda" x="357.163068" y="299.518125" style="stroke: #000; stroke-width: .8px"></use>
      </g>
     </g>
     <g id="text_14">
      <!-- 2013-2014 -->
      <g transform="translate(317.149663 350.433876) rotate(-45) scale(0.1 -0.1)">
       <use xlink:href="#DejaVuSans-32"></use>
       <use xlink:href="#DejaVuSans-30" x="63.623047"></use>
       <use xlink:href="#DejaVuSans-31" x="127.246094"></use>
       <use xlink:href="#DejaVuSans-33" x="190.869141"></use>
       <use xlink:href="#DejaVuSans-2d" x="254.492188"></use>
       <use xlink:href="#DejaVuSans-32" x="290.576172"></use>
       <use xlink:href="#DejaVuSans-30" x="354.199219"></use>
       <use xlink:href="#DejaVuSans-31" x="417.822266"></use>
       <use xlink:href="#DejaVuSans-34" x="481.445312"></use>
      </g>
     </g>
    </g>
    <g id="xtick_15">
     <g id="line2d_15">
      <g>
       <use xlink:href="#mbda7db0cda" x="379.708523" y="299.518125" style="stroke: #000; stroke-width: .8px"></use>
      </g>
     </g>
     <g id="text_15">
      <!-- 2014-2015 -->
      <g transform="translate(339.695118 350.433876) rotate(-45) scale(0.1 -0.1)">
       <use xlink:href="#DejaVuSans-32"></use>
       <use xlink:href="#DejaVuSans-30" x="63.623047"></use>
       <use xlink:href="#DejaVuSans-31" x="127.246094"></use>
       <use xlink:href="#DejaVuSans-34" x="190.869141"></use>
       <use xlink:href="#DejaVuSans-2d" x="254.492188"></use>
       <use xlink:href="#DejaVuSans-32" x="290.576172"></use>
       <use xlink:href="#DejaVuSans-30" x="354.199219"></use>
       <use xlink:href="#DejaVuSans-31" x="417.822266"></use>
       <use xlink:href="#DejaVuSans-35" x="481.445312"></use>
      </g>
     </g>
    </g>
    <g id="xtick_16">
     <g id="line2d_16">
      <g>
       <use xlink:href="#mbda7db0cda" x="402.253977" y="299.518125" style="stroke: #000; stroke-width: .8px"></use>
      </g>
     </g>
     <g id="text_16">
      <!-- 2015-2016 -->
      <g transform="translate(362.240572 350.433876) rotate(-45) scale(0.1 -0.1)">
       <use xlink:href="#DejaVuSans-32"></use>
       <use xlink:href="#DejaVuSans-30" x="63.623047"></use>
       <use xlink:href="#DejaVuSans-31" x="127.246094"></use>
       <use xlink:href="#DejaVuSans-35" x="190.869141"></use>
       <use xlink:href="#DejaVuSans-2d" x="254.492188"></use>
       <use xlink:href="#DejaVuSans-32" x="290.576172"></use>
       <use xlink:href="#DejaVuSans-30" x="354.199219"></use>
       <use xlink:href="#DejaVuSans-31" x="417.822266"></use>
       <use xlink:href="#DejaVuSans-36" x="481.445312"></use>
      </g>
     </g>
    </g>
    <g id="xtick_17">
     <g id="line2d_17">
      <g>
       <use xlink:href="#mbda7db0cda" x="424.799432" y="299.518125" style="stroke: #000; stroke-width: .8px"></use>
      </g>
     </g>
     <g id="text_17">
      <!-- 2016-2017 -->
      <g transform="translate(384.786027 350.433876) rotate(-45) scale(0.1 -0.1)">
       <use xlink:href="#DejaVuSans-32"></use>
       <use xlink:href="#DejaVuSans-30" x="63.623047"></use>
       <use xlink:href="#DejaVuSans-31" x="127.246094"></use>
       <use xlink:href="#DejaVuSans-36" x="190.869141"></use>
       <use xlink:href="#DejaVuSans-2d" x="254.492188"></use>
       <use xlink:href="#DejaVuSans-32" x="290.576172"></use>
       <use xlink:href="#DejaVuSans-30" x="354.199219"></use>
       <use xlink:href="#DejaVuSans-31" x="417.822266"></use>
       <use xlink:href="#DejaVuSans-37" x="481.445312"></use>
      </g>
     </g>
    </g>
    <g id="xtick_18">
     <g id="line2d_18">
      <g>
       <use xlink:href="#mbda7db0cda" x="447.344886" y="299.518125" style="stroke: #000; stroke-width: .8px"></use>
      </g>
     </g>
     <g id="text_18">
      <!-- 2017-2018 -->
      <g transform="translate(407.331481 350.433876) rotate(-45) scale(0.1 -0.1)">
       <use xlink:href="#DejaVuSans-32"></use>
       <use xlink:href="#DejaVuSans-30" x="63.623047"></use>
       <use xlink:href="#DejaVuSans-31" x="127.246094"></use>
       <use xlink:href="#DejaVuSans-37" x="190.869141"></use>
       <use xlink:href="#DejaVuSans-2d" x="254.492188"></use>
       <use xlink:href="#DejaVuSans-32" x="290.576172"></use>
       <use xlink:href="#DejaVuSans-30" x="354.199219"></use>
       <use xlink:href="#DejaVuSans-31" x="417.822266"></use>
       <use xlink:href="#DejaVuSans-38" x="481.445312"></use>
      </g>
     </g>
    </g>
    <g id="xtick_19">
     <g id="line2d_19">
      <g>
       <use xlink:href="#mbda7db0cda" x="469.890341" y="299.518125" style="stroke: #000; stroke-width: .8px"></use>
      </g>
     </g>
     <g id="text_19">
      <!-- 2018-2019 -->
      <g transform="translate(429.876936 350.433876) rotate(-45) scale(0.1 -0.1)">
       <use xlink:href="#DejaVuSans-32"></use>
       <use xlink:href="#DejaVuSans-30" x="63.623047"></use>
       <use xlink:href="#DejaVuSans-31" x="127.246094"></use>
       <use xlink:href="#DejaVuSans-38" x="190.869141"></use>
       <use xlink:href="#DejaVuSans-2d" x="254.492188"></use>
       <use xlink:href="#DejaVuSans-32" x="290.576172"></use>
       <use xlink:href="#DejaVuSans-30" x="354.199219"></use>
       <use xlink:href="#DejaVuSans-31" x="417.822266"></use>
       <use xlink:href="#DejaVuSans-39" x="481.445312"></use>
      </g>
     </g>
    </g>
    <g id="text_20">
     <!-- Season -->
     <g transform="translate(248.833594 363.502874) scale(0.1 -0.1)">
      <defs>
       <path id="DejaVuSans-53" d="M 3425 4513 
L 3425 3897 
Q 3066 4069 2747 4153 
Q 2428 4238 2131 4238 
Q 1616 4238 1336 4038 
Q 1056 3838 1056 3469 
Q 1056 3159 1242 3001 
Q 1428 2844 1947 2747 
L 2328 2669 
Q 3034 2534 3370 2195 
Q 3706 1856 3706 1288 
Q 3706 609 3251 259 
Q 2797 -91 1919 -91 
Q 1588 -91 1214 -16 
Q 841 59 441 206 
L 441 856 
Q 825 641 1194 531 
Q 1563 422 1919 422 
Q 2459 422 2753 634 
Q 3047 847 3047 1241 
Q 3047 1584 2836 1778 
Q 2625 1972 2144 2069 
L 1759 2144 
Q 1053 2284 737 2584 
Q 422 2884 422 3419 
Q 422 4038 858 4394 
Q 1294 4750 2059 4750 
Q 2388 4750 2728 4690 
Q 3069 4631 3425 4513 
z
" transform="scale(0.015625)"></path>
       <path id="DejaVuSans-65" d="M 3597 1894 
L 3597 1613 
L 953 1613 
Q 991 1019 1311 708 
Q 1631 397 2203 397 
Q 2534 397 2845 478 
Q 3156 559 3463 722 
L 3463 178 
Q 3153 47 2828 -22 
Q 2503 -91 2169 -91 
Q 1331 -91 842 396 
Q 353 884 353 1716 
Q 353 2575 817 3079 
Q 1281 3584 2069 3584 
Q 2775 3584 3186 3129 
Q 3597 2675 3597 1894 
z
M 3022 2063 
Q 3016 2534 2758 2815 
Q 2500 3097 2075 3097 
Q 1594 3097 1305 2825 
Q 1016 2553 972 2059 
L 3022 2063 
z
" transform="scale(0.015625)"></path>
       <path id="DejaVuSans-61" d="M 2194 1759 
Q 1497 1759 1228 1600 
Q 959 1441 959 1056 
Q 959 750 1161 570 
Q 1363 391 1709 391 
Q 2188 391 2477 730 
Q 2766 1069 2766 1631 
L 2766 1759 
L 2194 1759 
z
M 3341 1997 
L 3341 0 
L 2766 0 
L 2766 531 
Q 2569 213 2275 61 
Q 1981 -91 1556 -91 
Q 1019 -91 701 211 
Q 384 513 384 1019 
Q 384 1609 779 1909 
Q 1175 2209 1959 2209 
L 2766 2209 
L 2766 2266 
Q 2766 2663 2505 2880 
Q 2244 3097 1772 3097 
Q 1472 3097 1187 3025 
Q 903 2953 641 2809 
L 641 3341 
Q 956 3463 1253 3523 
Q 1550 3584 1831 3584 
Q 2591 3584 2966 3190 
Q 3341 2797 3341 1997 
z
" transform="scale(0.015625)"></path>
       <path id="DejaVuSans-73" d="M 2834 3397 
L 2834 2853 
Q 2591 2978 2328 3040 
Q 2066 3103 1784 3103 
Q 1356 3103 1142 2972 
Q 928 2841 928 2578 
Q 928 2378 1081 2264 
Q 1234 2150 1697 2047 
L 1894 2003 
Q 2506 1872 2764 1633 
Q 3022 1394 3022 966 
Q 3022 478 2636 193 
Q 2250 -91 1575 -91 
Q 1294 -91 989 -36 
Q 684 19 347 128 
L 347 722 
Q 666 556 975 473 
Q 1284 391 1588 391 
Q 1994 391 2212 530 
Q 2431 669 2431 922 
Q 2431 1156 2273 1281 
Q 2116 1406 1581 1522 
L 1381 1569 
Q 847 1681 609 1914 
Q 372 2147 372 2553 
Q 372 3047 722 3315 
Q 1072 3584 1716 3584 
Q 2034 3584 2315 3537 
Q 2597 3491 2834 3397 
z
" transform="scale(0.015625)"></path>
       <path id="DejaVuSans-6f" d="M 1959 3097 
Q 1497 3097 1228 2736 
Q 959 2375 959 1747 
Q 959 1119 1226 758 
Q 1494 397 1959 397 
Q 2419 397 2687 759 
Q 2956 1122 2956 1747 
Q 2956 2369 2687 2733 
Q 2419 3097 1959 3097 
z
M 1959 3584 
Q 2709 3584 3137 3096 
Q 3566 2609 3566 1747 
Q 3566 888 3137 398 
Q 2709 -91 1959 -91 
Q 1206 -91 779 398 
Q 353 888 353 1747 
Q 353 2609 779 3096 
Q 1206 3584 1959 3584 
z
" transform="scale(0.015625)"></path>
       <path id="DejaVuSans-6e" d="M 3513 2113 
L 3513 0 
L 2938 0 
L 2938 2094 
Q 2938 2591 2744 2837 
Q 2550 3084 2163 3084 
Q 1697 3084 1428 2787 
Q 1159 2491 1159 1978 
L 1159 0 
L 581 0 
L 581 3500 
L 1159 3500 
L 1159 2956 
Q 1366 3272 1645 3428 
Q 1925 3584 2291 3584 
Q 2894 3584 3203 3211 
Q 3513 2838 3513 2113 
z
" transform="scale(0.015625)"></path>
      </defs>
      <use xlink:href="#DejaVuSans-53"></use>
      <use xlink:href="#DejaVuSans-65" x="63.476562"></use>
      <use xlink:href="#DejaVuSans-61" x="125"></use>
      <use xlink:href="#DejaVuSans-73" x="186.279297"></use>
      <use xlink:href="#DejaVuSans-6f" x="238.378906"></use>
      <use xlink:href="#DejaVuSans-6e" x="299.560547"></use>
     </g>
    </g>
   </g>
   <g id="matplotlib.axis_2">
    <g id="ytick_1">
     <g id="line2d_20">
      <path d="M 43.78125 296.751775 
L 490.18125 296.751775 
" clip-path="url('#pcb8f3e4c90')" style="fill: none; stroke-dasharray: 2.96 1.28; stroke-dashoffset: 0; stroke: #b0b0b0; stroke-opacity: .7; stroke-width: .8px"></path>
     </g>
     <g id="line2d_21">
      <defs>
       <path id="mf74c0923e0" d="M 0 0 
L -3.5 0 
" style="stroke: #000; stroke-width: .8px"></path>
      </defs>
      <g>
       <use xlink:href="#mf74c0923e0" x="43.78125" y="296.751775" style="stroke: #000; stroke-width: .8px"></use>
      </g>
     </g>
     <g id="text_21">
      <!-- 0.4 -->
      <g transform="translate(20.878125 300.550994) scale(0.1 -0.1)">
       <defs>
        <path id="DejaVuSans-2e" d="M 684 794 
L 1344 794 
L 1344 0 
L 684 0 
L 684 794 
z
" transform="scale(0.015625)"></path>
       </defs>
       <use xlink:href="#DejaVuSans-30"></use>
       <use xlink:href="#DejaVuSans-2e" x="63.623047"></use>
       <use xlink:href="#DejaVuSans-34" x="95.410156"></use>
      </g>
     </g>
    </g>
    <g id="ytick_2">
     <g id="line2d_22">
      <path d="M 43.78125 262.878836 
L 490.18125 262.878836 
" clip-path="url('#pcb8f3e4c90')" style="fill: none; stroke-dasharray: 2.96 1.28; stroke-dashoffset: 0; stroke: #b0b0b0; stroke-opacity: .7; stroke-width: .8px"></path>
     </g>
     <g id="line2d_23">
      <g>
       <use xlink:href="#mf74c0923e0" x="43.78125" y="262.878836" style="stroke: #000; stroke-width: .8px"></use>
      </g>
     </g>
     <g id="text_22">
      <!-- 0.6 -->
      <g transform="translate(20.878125 266.678055) scale(0.1 -0.1)">
       <use xlink:href="#DejaVuSans-30"></use>
       <use xlink:href="#DejaVuSans-2e" x="63.623047"></use>
       <use xlink:href="#DejaVuSans-36" x="95.410156"></use>
      </g>
     </g>
    </g>
    <g id="ytick_3">
     <g id="line2d_24">
      <path d="M 43.78125 229.005898 
L 490.18125 229.005898 
" clip-path="url('#pcb8f3e4c90')" style="fill: none; stroke-dasharray: 2.96 1.28; stroke-dashoffset: 0; stroke: #b0b0b0; stroke-opacity: .7; stroke-width: .8px"></path>
     </g>
     <g id="line2d_25">
      <g>
       <use xlink:href="#mf74c0923e0" x="43.78125" y="229.005898" style="stroke: #000; stroke-width: .8px"></use>
      </g>
     </g>
     <g id="text_23">
      <!-- 0.8 -->
      <g transform="translate(20.878125 232.805117) scale(0.1 -0.1)">
       <use xlink:href="#DejaVuSans-30"></use>
       <use xlink:href="#DejaVuSans-2e" x="63.623047"></use>
       <use xlink:href="#DejaVuSans-38" x="95.410156"></use>
      </g>
     </g>
    </g>
    <g id="ytick_4">
     <g id="line2d_26">
      <path d="M 43.78125 195.132959 
L 490.18125 195.132959 
" clip-path="url('#pcb8f3e4c90')" style="fill: none; stroke-dasharray: 2.96 1.28; stroke-dashoffset: 0; stroke: #b0b0b0; stroke-opacity: .7; stroke-width: .8px"></path>
     </g>
     <g id="line2d_27">
      <g>
       <use xlink:href="#mf74c0923e0" x="43.78125" y="195.132959" style="stroke: #000; stroke-width: .8px"></use>
      </g>
     </g>
     <g id="text_24">
      <!-- 1.0 -->
      <g transform="translate(20.878125 198.932178) scale(0.1 -0.1)">
       <use xlink:href="#DejaVuSans-31"></use>
       <use xlink:href="#DejaVuSans-2e" x="63.623047"></use>
       <use xlink:href="#DejaVuSans-30" x="95.410156"></use>
      </g>
     </g>
    </g>
    <g id="ytick_5">
     <g id="line2d_28">
      <path d="M 43.78125 161.260021 
L 490.18125 161.260021 
" clip-path="url('#pcb8f3e4c90')" style="fill: none; stroke-dasharray: 2.96 1.28; stroke-dashoffset: 0; stroke: #b0b0b0; stroke-opacity: .7; stroke-width: .8px"></path>
     </g>
     <g id="line2d_29">
      <g>
       <use xlink:href="#mf74c0923e0" x="43.78125" y="161.260021" style="stroke: #000; stroke-width: .8px"></use>
      </g>
     </g>
     <g id="text_25">
      <!-- 1.2 -->
      <g transform="translate(20.878125 165.05924) scale(0.1 -0.1)">
       <use xlink:href="#DejaVuSans-31"></use>
       <use xlink:href="#DejaVuSans-2e" x="63.623047"></use>
       <use xlink:href="#DejaVuSans-32" x="95.410156"></use>
      </g>
     </g>
    </g>
    <g id="ytick_6">
     <g id="line2d_30">
      <path d="M 43.78125 127.387082 
L 490.18125 127.387082 
" clip-path="url('#pcb8f3e4c90')" style="fill: none; stroke-dasharray: 2.96 1.28; stroke-dashoffset: 0; stroke: #b0b0b0; stroke-opacity: .7; stroke-width: .8px"></path>
     </g>
     <g id="line2d_31">
      <g>
       <use xlink:href="#mf74c0923e0" x="43.78125" y="127.387082" style="stroke: #000; stroke-width: .8px"></use>
      </g>
     </g>
     <g id="text_26">
      <!-- 1.4 -->
      <g transform="translate(20.878125 131.186301) scale(0.1 -0.1)">
       <use xlink:href="#DejaVuSans-31"></use>
       <use xlink:href="#DejaVuSans-2e" x="63.623047"></use>
       <use xlink:href="#DejaVuSans-34" x="95.410156"></use>
      </g>
     </g>
    </g>
    <g id="ytick_7">
     <g id="line2d_32">
      <path d="M 43.78125 93.514144 
L 490.18125 93.514144 
" clip-path="url('#pcb8f3e4c90')" style="fill: none; stroke-dasharray: 2.96 1.28; stroke-dashoffset: 0; stroke: #b0b0b0; stroke-opacity: .7; stroke-width: .8px"></path>
     </g>
     <g id="line2d_33">
      <g>
       <use xlink:href="#mf74c0923e0" x="43.78125" y="93.514144" style="stroke: #000; stroke-width: .8px"></use>
      </g>
     </g>
     <g id="text_27">
      <!-- 1.6 -->
      <g transform="translate(20.878125 97.313363) scale(0.1 -0.1)">
       <use xlink:href="#DejaVuSans-31"></use>
       <use xlink:href="#DejaVuSans-2e" x="63.623047"></use>
       <use xlink:href="#DejaVuSans-36" x="95.410156"></use>
      </g>
     </g>
    </g>
    <g id="ytick_8">
     <g id="line2d_34">
      <path d="M 43.78125 59.641205 
L 490.18125 59.641205 
" clip-path="url('#pcb8f3e4c90')" style="fill: none; stroke-dasharray: 2.96 1.28; stroke-dashoffset: 0; stroke: #b0b0b0; stroke-opacity: .7; stroke-width: .8px"></path>
     </g>
     <g id="line2d_35">
      <g>
       <use xlink:href="#mf74c0923e0" x="43.78125" y="59.641205" style="stroke: #000; stroke-width: .8px"></use>
      </g>
     </g>
     <g id="text_28">
      <!-- 1.8 -->
      <g transform="translate(20.878125 63.440424) scale(0.1 -0.1)">
       <use xlink:href="#DejaVuSans-31"></use>
       <use xlink:href="#DejaVuSans-2e" x="63.623047"></use>
       <use xlink:href="#DejaVuSans-38" x="95.410156"></use>
      </g>
     </g>
    </g>
    <g id="ytick_9">
     <g id="line2d_36">
      <path d="M 43.78125 25.768267 
L 490.18125 25.768267 
" clip-path="url('#pcb8f3e4c90')" style="fill: none; stroke-dasharray: 2.96 1.28; stroke-dashoffset: 0; stroke: #b0b0b0; stroke-opacity: .7; stroke-width: .8px"></path>
     </g>
     <g id="line2d_37">
      <g>
       <use xlink:href="#mf74c0923e0" x="43.78125" y="25.768267" style="stroke: #000; stroke-width: .8px"></use>
      </g>
     </g>
     <g id="text_29">
      <!-- 2.0 -->
      <g transform="translate(20.878125 29.567486) scale(0.1 -0.1)">
       <use xlink:href="#DejaVuSans-32"></use>
       <use xlink:href="#DejaVuSans-2e" x="63.623047"></use>
       <use xlink:href="#DejaVuSans-30" x="95.410156"></use>
      </g>
     </g>
    </g>
    <g id="text_30">
     <!-- Mean Transfer Fee (€) -->
     <g transform="translate(14.798438 215.247031) rotate(-90) scale(0.1 -0.1)">
      <defs>
       <path id="DejaVuSans-4d" d="M 628 4666 
L 1569 4666 
L 2759 1491 
L 3956 4666 
L 4897 4666 
L 4897 0 
L 4281 0 
L 4281 4097 
L 3078 897 
L 2444 897 
L 1241 4097 
L 1241 0 
L 628 0 
L 628 4666 
z
" transform="scale(0.015625)"></path>
       <path id="DejaVuSans-20" transform="scale(0.015625)"></path>
       <path id="DejaVuSans-54" d="M -19 4666 
L 3928 4666 
L 3928 4134 
L 2272 4134 
L 2272 0 
L 1638 0 
L 1638 4134 
L -19 4134 
L -19 4666 
z
" transform="scale(0.015625)"></path>
       <path id="DejaVuSans-72" d="M 2631 2963 
Q 2534 3019 2420 3045 
Q 2306 3072 2169 3072 
Q 1681 3072 1420 2755 
Q 1159 2438 1159 1844 
L 1159 0 
L 581 0 
L 581 3500 
L 1159 3500 
L 1159 2956 
Q 1341 3275 1631 3429 
Q 1922 3584 2338 3584 
Q 2397 3584 2469 3576 
Q 2541 3569 2628 3553 
L 2631 2963 
z
" transform="scale(0.015625)"></path>
       <path id="DejaVuSans-66" d="M 2375 4863 
L 2375 4384 
L 1825 4384 
Q 1516 4384 1395 4259 
Q 1275 4134 1275 3809 
L 1275 3500 
L 2222 3500 
L 2222 3053 
L 1275 3053 
L 1275 0 
L 697 0 
L 697 3053 
L 147 3053 
L 147 3500 
L 697 3500 
L 697 3744 
Q 697 4328 969 4595 
Q 1241 4863 1831 4863 
L 2375 4863 
z
" transform="scale(0.015625)"></path>
       <path id="DejaVuSans-46" d="M 628 4666 
L 3309 4666 
L 3309 4134 
L 1259 4134 
L 1259 2759 
L 3109 2759 
L 3109 2228 
L 1259 2228 
L 1259 0 
L 628 0 
L 628 4666 
z
" transform="scale(0.015625)"></path>
       <path id="DejaVuSans-28" d="M 1984 4856 
Q 1566 4138 1362 3434 
Q 1159 2731 1159 2009 
Q 1159 1288 1364 580 
Q 1569 -128 1984 -844 
L 1484 -844 
Q 1016 -109 783 600 
Q 550 1309 550 2009 
Q 550 2706 781 3412 
Q 1013 4119 1484 4856 
L 1984 4856 
z
" transform="scale(0.015625)"></path>
       <path id="DejaVuSans-20ac" d="M 3647 4306 
L 3647 3641 
Q 3363 3969 3098 4109 
Q 2834 4250 2516 4250 
Q 2025 4250 1709 3937 
Q 1394 3625 1294 3041 
L 3097 3041 
L 2925 2656 
L 1244 2656 
Q 1238 2581 1236 2509 
Q 1234 2438 1234 2328 
Q 1234 2228 1236 2156 
Q 1238 2084 1244 2009 
L 2638 2009 
L 2463 1625 
L 1294 1625 
Q 1394 1041 1709 725 
Q 2025 409 2516 409 
Q 2834 409 3098 550 
Q 3363 691 3647 1019 
L 3647 359 
Q 3369 134 3080 21 
Q 2791 -91 2491 -91 
Q 1750 -91 1267 362 
Q 784 816 659 1625 
L 0 1625 
L 172 2009 
L 606 2009 
Q 606 2081 604 2154 
Q 603 2228 603 2328 
Q 603 2438 604 2511 
Q 606 2584 606 2656 
L 0 2656 
L 172 3041 
L 659 3041 
Q 784 3844 1268 4297 
Q 1753 4750 2491 4750 
Q 2797 4750 3086 4639 
Q 3375 4528 3647 4306 
z
" transform="scale(0.015625)"></path>
       <path id="DejaVuSans-29" d="M 513 4856 
L 1013 4856 
Q 1481 4119 1714 3412 
Q 1947 2706 1947 2009 
Q 1947 1309 1714 600 
Q 1481 -109 1013 -844 
L 513 -844 
Q 928 -128 1133 580 
Q 1338 1288 1338 2009 
Q 1338 2731 1133 3434 
Q 928 4138 513 4856 
z
" transform="scale(0.015625)"></path>
      </defs>
      <use xlink:href="#DejaVuSans-4d"></use>
      <use xlink:href="#DejaVuSans-65" x="86.279297"></use>
      <use xlink:href="#DejaVuSans-61" x="147.802734"></use>
      <use xlink:href="#DejaVuSans-6e" x="209.082031"></use>
      <use xlink:href="#DejaVuSans-20" x="272.460938"></use>
      <use xlink:href="#DejaVuSans-54" x="304.248047"></use>
      <use xlink:href="#DejaVuSans-72" x="350.582031"></use>
      <use xlink:href="#DejaVuSans-61" x="391.695312"></use>
      <use xlink:href="#DejaVuSans-6e" x="452.974609"></use>
      <use xlink:href="#DejaVuSans-73" x="516.353516"></use>
      <use xlink:href="#DejaVuSans-66" x="568.453125"></use>
      <use xlink:href="#DejaVuSans-65" x="603.658203"></use>
      <use xlink:href="#DejaVuSans-72" x="665.181641"></use>
      <use xlink:href="#DejaVuSans-20" x="706.294922"></use>
      <use xlink:href="#DejaVuSans-46" x="738.082031"></use>
      <use xlink:href="#DejaVuSans-65" x="790.101562"></use>
      <use xlink:href="#DejaVuSans-65" x="851.625"></use>
      <use xlink:href="#DejaVuSans-20" x="913.148438"></use>
      <use xlink:href="#DejaVuSans-28" x="944.935547"></use>
      <use xlink:href="#DejaVuSans-20ac" x="983.949219"></use>
      <use xlink:href="#DejaVuSans-29" x="1047.572266"></use>
     </g>
    </g>
    <g id="text_31">
     <!-- 1e7 -->
     <g transform="translate(43.78125 19.318125) scale(0.1 -0.1)">
      <use xlink:href="#DejaVuSans-31"></use>
      <use xlink:href="#DejaVuSans-65" x="63.623047"></use>
      <use xlink:href="#DejaVuSans-37" x="125.146484"></use>
     </g>
    </g>
   </g>
   <g id="line2d_38">
    <path d="M 64.072159 237.276085 
L 86.617614 223.784046 
L 109.163068 284.939629 
L 131.708523 286.918125 
L 154.253977 269.285329 
L 176.799432 272.336517 
L 199.344886 259.55684 
L 221.890341 217.892023 
L 244.435795 220.624378 
L 266.98125 216.16615 
L 289.526705 226.051348 
L 312.072159 219.263687 
L 334.617614 217.527343 
L 357.163068 169.476241 
L 379.708523 176.667389 
L 402.253977 131.217593 
L 424.799432 94.874481 
L 447.344886 34.918125 
L 469.890341 126.995124 
" clip-path="url('#pcb8f3e4c90')" style="fill: none; stroke: #ff8c00; stroke-width: 1.5px; stroke-linecap: square"></path>
    <defs>
     <path id="m089eaa720b" d="M 0 3 
C 0.795609 3 1.55874 2.683901 2.12132 2.12132 
C 2.683901 1.55874 3 0.795609 3 0 
C 3 -0.795609 2.683901 -1.55874 2.12132 -2.12132 
C 1.55874 -2.683901 0.795609 -3 0 -3 
C -0.795609 -3 -1.55874 -2.683901 -2.12132 -2.12132 
C -2.683901 -1.55874 -3 -0.795609 -3 0 
C -3 0.795609 -2.683901 1.55874 -2.12132 2.12132 
C -1.55874 2.683901 -0.795609 3 0 3 
z
" style="stroke: #ff8c00"></path>
    </defs>
    <g clip-path="url('#pcb8f3e4c90')">
     <use xlink:href="#m089eaa720b" x="64.072159" y="237.276085" style="fill: #ff8c00; stroke: #ff8c00"></use>
     <use xlink:href="#m089eaa720b" x="86.617614" y="223.784046" style="fill: #ff8c00; stroke: #ff8c00"></use>
     <use xlink:href="#m089eaa720b" x="109.163068" y="284.939629" style="fill: #ff8c00; stroke: #ff8c00"></use>
     <use xlink:href="#m089eaa720b" x="131.708523" y="286.918125" style="fill: #ff8c00; stroke: #ff8c00"></use>
     <use xlink:href="#m089eaa720b" x="154.253977" y="269.285329" style="fill: #ff8c00; stroke: #ff8c00"></use>
     <use xlink:href="#m089eaa720b" x="176.799432" y="272.336517" style="fill: #ff8c00; stroke: #ff8c00"></use>
     <use xlink:href="#m089eaa720b" x="199.344886" y="259.55684" style="fill: #ff8c00; stroke: #ff8c00"></use>
     <use xlink:href="#m089eaa720b" x="221.890341" y="217.892023" style="fill: #ff8c00; stroke: #ff8c00"></use>
     <use xlink:href="#m089eaa720b" x="244.435795" y="220.624378" style="fill: #ff8c00; stroke: #ff8c00"></use>
     <use xlink:href="#m089eaa720b" x="266.98125" y="216.16615" style="fill: #ff8c00; stroke: #ff8c00"></use>
     <use xlink:href="#m089eaa720b" x="289.526705" y="226.051348" style="fill: #ff8c00; stroke: #ff8c00"></use>
     <use xlink:href="#m089eaa720b" x="312.072159" y="219.263687" style="fill: #ff8c00; stroke: #ff8c00"></use>
     <use xlink:href="#m089eaa720b" x="334.617614" y="217.527343" style="fill: #ff8c00; stroke: #ff8c00"></use>
     <use xlink:href="#m089eaa720b" x="357.163068" y="169.476241" style="fill: #ff8c00; stroke: #ff8c00"></use>
     <use xlink:href="#m089eaa720b" x="379.708523" y="176.667389" style="fill: #ff8c00; stroke: #ff8c00"></use>
     <use xlink:href="#m089eaa720b" x="402.253977" y="131.217593" style="fill: #ff8c00; stroke: #ff8c00"></use>
     <use xlink:href="#m089eaa720b" x="424.799432" y="94.874481" style="fill: #ff8c00; stroke: #ff8c00"></use>
     <use xlink:href="#m089eaa720b" x="447.344886" y="34.918125" style="fill: #ff8c00; stroke: #ff8c00"></use>
     <use xlink:href="#m089eaa720b" x="469.890341" y="126.995124" style="fill: #ff8c00; stroke: #ff8c00"></use>
    </g>
   </g>
   <g id="patch_3">
    <path d="M 43.78125 299.518125 
L 43.78125 22.318125 
" style="fill: none; stroke: #000; stroke-width: .8px; stroke-linejoin: miter; stroke-linecap: square"></path>
   </g>
   <g id="patch_4">
    <path d="M 490.18125 299.518125 
L 490.18125 22.318125 
" style="fill: none; stroke: #000; stroke-width: .8px; stroke-linejoin: miter; stroke-linecap: square"></path>
   </g>
   <g id="patch_5">
    <path d="M 43.78125 299.518125 
L 490.18125 299.518125 
" style="fill: none; stroke: #000; stroke-width: .8px; stroke-linejoin: miter; stroke-linecap: square"></path>
   </g>
   <g id="patch_6">
    <path d="M 43.78125 22.318125 
L 490.18125 22.318125 
" style="fill: none; stroke: #000; stroke-width: .8px; stroke-linejoin: miter; stroke-linecap: square"></path>
   </g>
   <g id="text_32">
    <!-- Average Transfer Fee Per Season (2000-2018) -->
    <g transform="translate(129.458438 16.318125) scale(0.12 -0.12)">
     <defs>
      <path id="DejaVuSans-41" d="M 2188 4044 
L 1331 1722 
L 3047 1722 
L 2188 4044 
z
M 1831 4666 
L 2547 4666 
L 4325 0 
L 3669 0 
L 3244 1197 
L 1141 1197 
L 716 0 
L 50 0 
L 1831 4666 
z
" transform="scale(0.015625)"></path>
      <path id="DejaVuSans-76" d="M 191 3500 
L 800 3500 
L 1894 563 
L 2988 3500 
L 3597 3500 
L 2284 0 
L 1503 0 
L 191 3500 
z
" transform="scale(0.015625)"></path>
      <path id="DejaVuSans-67" d="M 2906 1791 
Q 2906 2416 2648 2759 
Q 2391 3103 1925 3103 
Q 1463 3103 1205 2759 
Q 947 2416 947 1791 
Q 947 1169 1205 825 
Q 1463 481 1925 481 
Q 2391 481 2648 825 
Q 2906 1169 2906 1791 
z
M 3481 434 
Q 3481 -459 3084 -895 
Q 2688 -1331 1869 -1331 
Q 1566 -1331 1297 -1286 
Q 1028 -1241 775 -1147 
L 775 -588 
Q 1028 -725 1275 -790 
Q 1522 -856 1778 -856 
Q 2344 -856 2625 -561 
Q 2906 -266 2906 331 
L 2906 616 
Q 2728 306 2450 153 
Q 2172 0 1784 0 
Q 1141 0 747 490 
Q 353 981 353 1791 
Q 353 2603 747 3093 
Q 1141 3584 1784 3584 
Q 2172 3584 2450 3431 
Q 2728 3278 2906 2969 
L 2906 3500 
L 3481 3500 
L 3481 434 
z
" transform="scale(0.015625)"></path>
      <path id="DejaVuSans-50" d="M 1259 4147 
L 1259 2394 
L 2053 2394 
Q 2494 2394 2734 2622 
Q 2975 2850 2975 3272 
Q 2975 3691 2734 3919 
Q 2494 4147 2053 4147 
L 1259 4147 
z
M 628 4666 
L 2053 4666 
Q 2838 4666 3239 4311 
Q 3641 3956 3641 3272 
Q 3641 2581 3239 2228 
Q 2838 1875 2053 1875 
L 1259 1875 
L 1259 0 
L 628 0 
L 628 4666 
z
" transform="scale(0.015625)"></path>
     </defs>
     <use xlink:href="#DejaVuSans-41"></use>
     <use xlink:href="#DejaVuSans-76" x="62.533203"></use>
     <use xlink:href="#DejaVuSans-65" x="121.712891"></use>
     <use xlink:href="#DejaVuSans-72" x="183.236328"></use>
     <use xlink:href="#DejaVuSans-61" x="224.349609"></use>
     <use xlink:href="#DejaVuSans-67" x="285.628906"></use>
     <use xlink:href="#DejaVuSans-65" x="349.105469"></use>
     <use xlink:href="#DejaVuSans-20" x="410.628906"></use>
     <use xlink:href="#DejaVuSans-54" x="442.416016"></use>
     <use xlink:href="#DejaVuSans-72" x="488.75"></use>
     <use xlink:href="#DejaVuSans-61" x="529.863281"></use>
     <use xlink:href="#DejaVuSans-6e" x="591.142578"></use>
     <use xlink:href="#DejaVuSans-73" x="654.521484"></use>
     <use xlink:href="#DejaVuSans-66" x="706.621094"></use>
     <use xlink:href="#DejaVuSans-65" x="741.826172"></use>
     <use xlink:href="#DejaVuSans-72" x="803.349609"></use>
     <use xlink:href="#DejaVuSans-20" x="844.462891"></use>
     <use xlink:href="#DejaVuSans-46" x="876.25"></use>
     <use xlink:href="#DejaVuSans-65" x="928.269531"></use>
     <use xlink:href="#DejaVuSans-65" x="989.792969"></use>
     <use xlink:href="#DejaVuSans-20" x="1051.316406"></use>
     <use xlink:href="#DejaVuSans-50" x="1083.103516"></use>
     <use xlink:href="#DejaVuSans-65" x="1139.78125"></use>
     <use xlink:href="#DejaVuSans-72" x="1201.304688"></use>
     <use xlink:href="#DejaVuSans-20" x="1242.417969"></use>
     <use xlink:href="#DejaVuSans-53" x="1274.205078"></use>
     <use xlink:href="#DejaVuSans-65" x="1337.681641"></use>
     <use xlink:href="#DejaVuSans-61" x="1399.205078"></use>
     <use xlink:href="#DejaVuSans-73" x="1460.484375"></use>
     <use xlink:href="#DejaVuSans-6f" x="1512.583984"></use>
     <use xlink:href="#DejaVuSans-6e" x="1573.765625"></use>
     <use xlink:href="#DejaVuSans-20" x="1637.144531"></use>
     <use xlink:href="#DejaVuSans-28" x="1668.931641"></use>
     <use xlink:href="#DejaVuSans-32" x="1707.945312"></use>
     <use xlink:href="#DejaVuSans-30" x="1771.568359"></use>
     <use xlink:href="#DejaVuSans-30" x="1835.191406"></use>
     <use xlink:href="#DejaVuSans-30" x="1898.814453"></use>
     <use xlink:href="#DejaVuSans-2d" x="1962.4375"></use>
     <use xlink:href="#DejaVuSans-32" x="1998.521484"></use>
     <use xlink:href="#DejaVuSans-30" x="2062.144531"></use>
     <use xlink:href="#DejaVuSans-31" x="2125.767578"></use>
     <use xlink:href="#DejaVuSans-38" x="2189.390625"></use>
     <use xlink:href="#DejaVuSans-29" x="2253.013672"></use>
    </g>
   </g>
  </g>
 </g>
 <defs>
  <clipPath id="pcb8f3e4c90">
   <rect x="43.78125" y="22.318125" width="446.4" height="277.2"></rect>
  </clipPath>
 </defs>
</svg>
